<svg width="960" height="420" viewBox="0 0 960 420" fill="none" xmlns="http://www.w3.org/2000/svg" role="img" aria-labelledby="title desc">
  <title id="title">Stylized Cyprus map preview</title>
  <desc id="desc">A soft Mediterranean-style illustration of Cyprus on a pale blue sea background, intended for a home page map preview.</desc>

  <rect width="960" height="420" rx="18" fill="#DDF3F5"/>

  <g opacity="0.45" stroke="#B9DCE0" stroke-width="2" stroke-linecap="round">
    <path d="M0 48 C22 34 44 62 66 48 C88 34 110 62 132 48 C154 34 176 62 198 48 C220 34 242 62 264 48 C286 34 308 62 330 48 C352 34 374 62 396 48 C418 34 440 62 462 48 C484 34 506 62 528 48 C550 34 572 62 594 48 C616 34 638 62 660 48 C682 34 704 62 726 48 C748 34 770 62 792 48 C814 34 836 62 858 48 C880 34 902 62 924 48 C946 34 968 62 990 48"/>
    <path d="M0 102 C22 88 44 116 66 102 C88 88 110 116 132 102 C154 88 176 116 198 102 C220 88 242 116 264 102 C286 88 308 116 330 102 C352 88 374 116 396 102 C418 88 440 116 462 102 C484 88 506 116 528 102 C550 88 572 116 594 102 C616 88 638 116 660 102 C682 88 704 116 726 102 C748 88 770 116 792 102 C814 88 836 116 858 102 C880 88 902 116 924 102 C946 88 968 116 990 102"/>
    <path d="M0 156 C22 142 44 170 66 156 C88 142 110 170 132 156 C154 142 176 170 198 156 C220 142 242 170 264 156 C286 142 308 170 330 156 C352 142 374 170 396 156 C418 142 440 170 462 156 C484 142 506 170 528 156 C550 142 572 170 594 156 C616 142 638 170 660 156 C682 142 704 170 726 156 C748 142 770 170 792 156 C814 142 836 170 858 156 C880 142 902 170 924 156 C946 142 968 170 990 156"/>
    <path d="M0 210 C22 196 44 224 66 210 C88 196 110 224 132 210 C154 196 176 224 198 210 C220 196 242 224 264 210 C286 196 308 224 330 210 C352 196 374 224 396 210 C418 196 440 224 462 210 C484 196 506 224 528 210 C550 196 572 224 594 210 C616 196 638 224 660 210 C682 196 704 224 726 210 C748 196 770 224 792 210 C814 196 836 224 858 210 C880 196 902 224 924 210 C946 196 968 224 990 210"/>
    <path d="M0 264 C22 250 44 278 66 264 C88 250 110 278 132 264 C154 250 176 278 198 264 C220 250 242 278 264 264 C286 250 308 278 330 264 C352 250 374 278 396 264 C418 250 440 278 462 264 C484 250 506 278 528 264 C550 250 572 278 594 264 C616 250 638 278 660 264 C682 250 704 278 726 264 C748 250 770 278 792 264 C814 250 836 278 858 264 C880 250 902 278 924 264 C946 250 968 278 990 264"/>
    <path d="M0 318 C22 304 44 332 66 318 C88 304 110 332 132 318 C154 304 176 332 198 318 C220 304 242 332 264 318 C286 304 308 332 330 318 C352 304 374 332 396 318 C418 304 440 332 462 318 C484 304 506 332 528 318 C550 304 572 332 594 318 C616 304 638 332 660 318 C682 304 704 332 726 318 C748 304 770 332 792 318 C814 304 836 332 858 318 C880 304 902 332 924 318 C946 304 968 332 990 318"/>
    <path d="M0 372 C22 358 44 386 66 372 C88 358 110 386 132 372 C154 358 176 386 198 372 C220 358 242 386 264 372 C286 358 308 386 330 372 C352 358 374 386 396 372 C418 358 440 386 462 372 C484 358 506 386 528 372 C550 358 572 386 594 372 C616 358 638 386 660 372 C682 358 704 386 726 372 C748 358 770 386 792 372 C814 358 836 386 858 372 C880 358 902 386 924 372 C946 358 968 386 990 372"/>
  </g>

  <g filter="url(#softShadow)">
    <path d="M92 203 C121 164 171 151 236 149 C292 147 330 126 394 126 C445 126 476 119 524 116 C572 112 619 119 661 119 C726 119 772 133 827 139 C873 144 915 158 930 181 C921 203 900 220 864 225 C830 230 804 222 770 226 C725 233 677 235 632 229 C584 222 548 224 506 230 C456 238 418 228 371 233 C323 238 294 247 244 235 C205 226 161 233 120 220 L92 203 Z" fill="#FBF4DF" stroke="#C6BFA9" stroke-width="3"/>
  </g>

  <path d="M235 195 C289 178 351 172 430 191" stroke="#C9CFB7" stroke-width="6" stroke-linecap="round" opacity="0.8"/>
  <path d="M264 203 C314 189 363 188 410 202" stroke="#D7D9C4" stroke-width="3" stroke-linecap="round" opacity="0.75"/>

  <defs>
    <filter id="softShadow" x="70" y="96" width="885" height="178" filterUnits="userSpaceOnUse" color-interpolation-filters="sRGB">
      <feDropShadow dx="0" dy="7" stdDeviation="7" flood-color="#5C6F61" flood-opacity="0.18"/>
    </filter>
  </defs>
</svg>
